<svg width="32" height="32" viewBox="0 0 32 32" fill="none" xmlns="http://www.w3.org/2000/svg">
<g clip-path="url(#clip0_11_216)">
<rect y="26" width="32" height="6" rx="3" fill="#E83C77"/>
<path d="M2.5 11C2.5 9.34315 3.84315 8 5.5 8C7.15685 8 8.5 9.34315 8.5 11L8.5 21C8.5 22.6569 7.15685 24 5.5 24C3.84315 24 2.5 22.6569 2.5 21L2.5 11Z" fill="#E83C77"/>
<path d="M2.5 3C2.5 1.34315 3.84315 0 5.5 0C7.15685 0 8.5 1.34315 8.5 3C8.5 4.65685 7.15685 6 5.5 6C3.84315 6 2.5 4.65685 2.5 3Z" fill="#E83C77"/>
<path fill-rule="evenodd" clip-rule="evenodd" d="M20.5 3.5C15.5294 3.5 11.5 7.52944 11.5 12.5V21C11.5 22.6569 12.8431 24 14.5 24C16.1569 24 17.5 22.6569 17.5 21V12.5C17.5 10.8431 18.8431 9.5 20.5 9.5C22.1569 9.5 23.5 10.8431 23.5 12.5L23.5 21C23.5 22.6569 24.8431 24 26.5 24C28.1569 24 29.5 22.6569 29.5 21V12.5C29.5 7.52944 25.4706 3.5 20.5 3.5Z" fill="#E83C77"/>
</g>
<defs>
<clipPath id="clip0_11_216">
<rect width="32" height="32" fill="white"/>
</clipPath>
</defs>
</svg>
