<svg width="512" height="512" viewBox="0 0 512 512" fill="none" xmlns="http://www.w3.org/2000/svg">
<path d="M481.28 261.333C481.28 244.693 479.787 228.693 477.013 213.333H256V304.213H382.293C376.747 333.44 360.107 358.187 335.147 374.827V433.92H411.307C455.68 392.96 481.28 332.8 481.28 261.333Z" fill="#4285F4"/>
<path d="M256 490.667C319.36 490.667 372.48 469.76 411.307 433.92L335.147 374.827C314.24 388.907 287.573 397.44 256 397.44C194.987 397.44 143.147 356.267 124.587 300.8H46.5066V361.387C85.1199 437.973 164.267 490.667 256 490.667Z" fill="#34A853"/>
<path d="M124.587 300.587C119.893 286.507 117.12 271.573 117.12 256C117.12 240.427 119.893 225.493 124.587 211.413V150.827H46.5066C30.5066 182.4 21.3333 218.027 21.3333 256C21.3333 293.973 30.5066 329.6 46.5066 361.173L107.307 313.813L124.587 300.587Z" fill="#FBBC05"/>
<path d="M256 114.773C290.56 114.773 321.28 126.72 345.813 149.76L413.013 82.5599C372.267 44.5866 319.36 21.3333 256 21.3333C164.267 21.3333 85.1199 74.0266 46.5066 150.827L124.587 211.413C143.147 155.947 194.987 114.773 256 114.773Z" fill="#EA4335"/>
</svg>
